 <svg version="1.0" xmlns="http://www.w3.org/2000/svg" width="700.000000pt" height="644.000000pt" viewBox="0 0 700.000000 644.000000" preserveAspectRatio="xMidYMid meet">
<metadata>
Created by potrace 1.12, written by Peter Selinger 2001-2015
</metadata>
<g transform="translate(0.000000,644.000000) scale(0.100000,-0.100000)" fill="#000000" stroke="none">
<path d="M1975 5368 c-69 -10 -225 -67 -256 -94 -8 -8 -20 -14 -25 -14 -21 0
-212 -182 -707 -672 -614 -609 -571 -540 -430 -678 49 -47 162 -155 252 -240
91 -85 176 -166 191 -180 59 -57 369 -350 415 -393 73 -68 94 -65 192 22 43
38 100 92 128 120 27 28 57 51 67 51 17 0 18 -53 18 -1159 0 -638 3 -1167 6
-1176 16 -41 45 -44 415 -45 231 -1 364 2 382 9 17 7 34 24 43 46 12 30 12 39
0 69 -26 63 -41 66 -364 66 -255 0 -291 2 -296 16 -3 9 -6 566 -6 1238 0 1211
0 1224 -20 1249 -24 30 -66 42 -101 28 -25 -9 -50 -32 -250 -228 -64 -62 -123
-113 -130 -113 -8 1 -50 35 -94 76 -123 117 -419 399 -525 500 -52 50 -112
106 -132 124 -40 34 -48 63 -23 77 8 5 147 139 308 298 685 679 730 721 807
759 126 63 214 76 532 76 l267 0 20 -29 c12 -16 21 -32 21 -36 0 -23 128 -158
200 -212 110 -82 223 -127 375 -148 142 -20 332 4 432 53 10 5 36 18 58 28
106 49 242 175 304 279 13 22 31 46 39 53 12 9 83 12 276 12 310 0 388 -11
516 -73 79 -38 99 -55 295 -248 723 -714 835 -827 835 -842 0 -9 -33 -47 -72
-84 -137 -129 -263 -247 -343 -324 -291 -278 -361 -342 -373 -337 -5 1 -86 77
-181 168 -94 91 -183 169 -198 173 -36 11 -77 -5 -98 -36 -13 -21 -15 -156
-16 -1242 0 -805 -4 -1225 -10 -1237 -10 -19 -30 -19 -662 -16 -598 4 -656 6
-702 22 -225 81 -364 214 -453 434 -34 85 -35 91 -36 232 -1 147 9 199 50 279
8 14 14 29 14 33 0 58 395 461 825 843 43 39 83 75 89 80 14 13 113 103 236
215 51 47 110 102 129 123 36 39 100 135 101 150 0 5 7 23 15 40 19 44 45 160
45 207 0 92 -44 235 -97 317 -76 116 -189 203 -323 249 -78 26 -284 26 -355 0
-74 -27 -114 -47 -166 -83 -25 -18 -53 -33 -60 -33 -8 0 -34 14 -59 30 -50 33
-100 58 -175 86 -39 14 -78 18 -175 18 -128 0 -182 -11 -280 -60 -122 -61
-232 -189 -285 -334 -28 -77 -29 -304 -2 -370 52 -126 83 -172 172 -258 76
-73 242 -227 305 -282 38 -33 270 -242 323 -291 11 -10 17 -24 15 -33 -1 -8
-82 -95 -178 -193 -256 -259 -324 -377 -355 -615 -15 -112 -2 -271 30 -368 67
-203 199 -383 355 -485 84 -55 84 -55 150 -80 19 -7 53 -20 75 -29 22 -9 99
-23 170 -32 114 -15 208 -16 757 -11 701 7 675 4 696 75 9 29 12 331 12 1170
0 780 3 1133 11 1137 5 4 66 -48 134 -114 160 -156 156 -155 286 -34 124 115
207 193 358 338 69 67 178 170 241 230 64 61 157 149 207 197 101 96 118 129
87 176 -15 23 -452 461 -969 971 -88 86 -187 175 -220 198 -89 60 -215 109
-316 122 -120 16 -727 14 -756 -2 -26 -15 -50 -46 -83 -110 -28 -53 -94 -127
-156 -175 -48 -37 -155 -92 -179 -92 -9 0 -30 -7 -48 -16 -44 -23 -261 -23
-305 0 -17 9 -38 16 -47 16 -26 0 -135 58 -191 101 -61 47 -137 141 -165 204
-38 86 -35 85 -424 83 -187 0 -371 -5 -410 -10z m1100 -1229 c75 -26 156 -80
195 -129 60 -75 131 -74 192 3 65 81 204 147 313 147 128 0 282 -89 338 -195
47 -88 52 -110 52 -205 -1 -87 -4 -101 -35 -165 -36 -76 -56 -98 -200 -226
-52 -46 -149 -134 -215 -194 -66 -61 -142 -130 -170 -154 -27 -24 -75 -68
-107 -98 -31 -29 -63 -53 -71 -53 -11 0 -88 60 -127 100 -3 3 -50 46 -105 95
-90 81 -118 106 -206 187 -14 12 -68 61 -120 108 -176 159 -190 176 -230 289
-50 142 7 323 133 422 105 84 244 110 363 68z"></path>
</g>
</svg>